<?xml version="1.0" encoding="UTF-8" standalone="no"?>
<svg
   xmlns:dc="http://purl.org/dc/elements/1.1/"
   xmlns:cc="http://creativecommons.org/ns#"
   xmlns:rdf="http://www.w3.org/1999/02/22-rdf-syntax-ns#"
   xmlns:svg="http://www.w3.org/2000/svg"
   xmlns="http://www.w3.org/2000/svg"
   xmlns:sodipodi="http://sodipodi.sourceforge.net/DTD/sodipodi-0.dtd"
   xmlns:inkscape="http://www.inkscape.org/namespaces/inkscape"
   version="1.1"
   id="Layer_1"
   x="0px"
   y="0px"
   width="100"
   height="29"
   viewBox="0 0 100 29"
   enable-background="new 0 0 584 149"
   xml:space="preserve"
   inkscape:version="0.92.4 (5da689c313, 2019-01-14)"
   sodipodi:docname="u (micro) Torrent logo.svg"><title
     id="title4194">Dane (Colombia)  logo</title><metadata
     id="metadata8"><rdf:RDF><cc:Work
         rdf:about=""><dc:format>image/svg+xml</dc:format><dc:type
           rdf:resource="http://purl.org/dc/dcmitype/StillImage" /><dc:title>Dane (Colombia)  logo</dc:title><cc:license
           rdf:resource="http://scripts.sil.org/OFL" /><dc:date>1 feb 2020</dc:date></cc:Work><cc:License
         rdf:about="http://scripts.sil.org/OFL"><cc:permits
           rdf:resource="http://scripts.sil.org/pub/OFL/Reproduction" /><cc:permits
           rdf:resource="http://scripts.sil.org/pub/OFL/Distribution" /><cc:permits
           rdf:resource="http://scripts.sil.org/pub/OFL/Embedding" /><cc:permits
           rdf:resource="http://scripts.sil.org/pub/OFL/DerivativeWorks" /><cc:requires
           rdf:resource="http://scripts.sil.org/pub/OFL/Notice" /><cc:requires
           rdf:resource="http://scripts.sil.org/pub/OFL/Attribution" /><cc:requires
           rdf:resource="http://scripts.sil.org/pub/OFL/ShareAlike" /><cc:requires
           rdf:resource="http://scripts.sil.org/pub/OFL/DerivativeRenaming" /><cc:requires
           rdf:resource="http://scripts.sil.org/pub/OFL/BundlingWhenSelling" /></cc:License></rdf:RDF></metadata><defs
     id="defs6" /><sodipodi:namedview
     pagecolor="#ffffff"
     bordercolor="#666666"
     borderopacity="1"
     objecttolerance="1"
     gridtolerance="1"
     guidetolerance="1"
     inkscape:pageopacity="0"
     inkscape:pageshadow="2"
     inkscape:window-width="1366"
     inkscape:window-height="705"
     id="namedview4"
     showgrid="false"
     inkscape:showpageshadow="false"
     inkscape:zoom="1"
     inkscape:cx="52.954121"
     inkscape:cy="15.744072"
     inkscape:window-x="-8"
     inkscape:window-y="-8"
     inkscape:window-maximized="1"
     inkscape:current-layer="Layer_1"
     showguides="false"><inkscape:grid
       type="xygrid"
       id="grid4166" /></sodipodi:namedview><g
     id="layer103-2"
     transform="matrix(0.79031136,0,0,1.094549,-7913.6229,-887.15497)"
     style="display:inline;fill:#00ff00;fill-opacity:1;stroke:none" /><g
     id="#02b42aff-2"
     transform="matrix(0.04006731,0,0,0.04006731,0.62463324,-55.794019)" /><path
     inkscape:connector-curvature="0"
     style="clip-rule:evenodd;opacity:1;fill:#b80150;fill-opacity:1;fill-rule:evenodd;stroke:none;stroke-width:5.35060787;image-rendering:optimizeQuality;shape-rendering:geometricPrecision;text-rendering:geometricPrecision"
     d="m 81.951078,0.4370003 -0.124115,28.1891887 17.826822,0.155628 0.03551,-4.850215 -12.440747,-0.09653 0.10835,-6.483381 10.269775,0.07686 0.03742,-5.106316 -10.322972,-0.07683 c 0.04348,-1.024946 0.04529,-6.8576804 0.04529,-6.8576804 l 11.432101,0.086683 0.03742,-4.9191705 -11.873388,-0.086683 v 0.00595 z M 0.32871313,0.6083932 0.35433299,5.4369409 7.1469979,5.5492328 c 6.7170051,0.1137955 6.8053531,0.1149141 7.6082641,0.4097666 1.379973,0.5121865 2.220072,1.0325674 3.043702,1.9168413 0.848622,0.909577 1.542629,2.2075563 1.88532,3.4771063 0.305662,1.168906 0.355409,4.592719 0.09259,6.083462 -0.577799,3.21947 -2.709855,5.586776 -5.557464,6.179986 -1.54974,0.315942 -2.065072,0.348098 -5.3860629,0.323084 l -3.2072163,-0.02562 0.017753,-10.724852 -5.40970616,-0.04136 -0.0689921,15.488392 c 0,0 10.92106346,0.162878 12.58259246,0.03742 6.344076,-0.479061 10.761557,-4.094853 12.291022,-10.066864 0.297836,-1.126699 0.425653,-4.764701 0.236409,-6.359266 C 25.1336,11.004415 24.533842,8.8934973 24.038036,7.911296 23.158205,6.1359943 21.524345,4.2279837 19.9975,3.1753399 18.971174,2.4776684 17.618182,1.8030286 16.48887,1.4180759 14.606567,0.7893412 13.474107,0.706599 6.6308281,0.6537041 Z M 54.89466,0.6241582 54.695692,28.624223 l 5.342722,0.07686 0.250197,-16.595551 18.372512,16.798463 C 78.898027,19.517652 79.12211,0.7423892 79.12211,0.7423892 L 73.765601,0.7010242 73.379466,17.385222 Z m -16.215331,0.017723 c 0,7.16e-5 -14.783119,27.9488418 -14.783119,27.9488418 l 5.803718,0.04529 4.050379,-8.248519 9.28673,-0.01775 4.103577,8.437641 5.740677,0.01775 L 38.679329,0.6477707 Z m -0.09451,10.7997148 2.169004,4.521224 -4.379384,-0.07091 z"
     id="path346" /></svg>